<svg width="24" height="24" viewBox="0 0 24 24" xmlns="http://www.w3.org/2000/svg"><title>Artboard 1 Copy</title><path d="M12 2C6.477 2 2 6.478 2 12s4.477 10 10 10 10-4.478 10-10S17.523 2 12 2zm.048 18c-4.417 0-8-3.582-8-8s3.583-8 8-8c4.42 0 8 3.582 8 8s-3.58 8-8 8zm-3.754-7.25c-.392-.38-.392-.998 0-1.38.406-.394 1.04-.394 1.433-.013l1.208 1.175 3.34-3.247c.39-.38 1.026-.38 1.418 0 .405.396.405 1.013.013 1.393l-4.214 4.098c-.307.3-.807.3-1.114 0L8.294 12.75z" fill="#A6A6A6" fill-rule="evenodd"/></svg>