<?xml version="1.0" encoding="UTF-8" standalone="no"?>
<svg width="24px" height="24px" viewBox="0 0 24 24" version="1.1" xmlns="http://www.w3.org/2000/svg" xmlns:xlink="http://www.w3.org/1999/xlink" xmlns:sketch="http://www.bohemiancoding.com/sketch/ns">
    <!-- Generator: Sketch 3.4 (15575) - http://www.bohemiancoding.com/sketch -->
    <title>Artboard 1 Copy</title>
    <desc>Created with Sketch.</desc>
    <defs></defs>
    <g id="export" stroke="none" stroke-width="1" fill="none" fill-rule="evenodd" sketch:type="MSPage">
        <g id="Artboard-1-Copy" sketch:type="MSArtboardGroup" fill="#A6A6A6">
            <path d="M12,2 C6.476807,2 2,6.47763 2,11.99948 C2,17.522369 6.476807,22 12,22 C17.52319,22 22,17.522369 22,11.99948 C22,6.47763 17.52319,2 12,2 L12,2 L12,2 Z M12.04846,20 C7.630554,20 4.049011,16.418457 4.049011,11.99948 C4.049011,7.58154 7.630554,4 12.04846,4 C16.46747,4 20.04901,7.58154 20.04901,11.99948 C20.04901,16.418457 16.46747,20 12.04846,20 L12.04846,20 Z M8.294189,12.749817 C7.901917,12.369339 7.901917,11.75163 8.294189,11.37025 C8.700256,10.97635 9.334656,10.97635 9.726929,11.35683 L10.934937,12.532272 L14.2746,9.28525 C14.66589,8.90477 15.30127,8.90477 15.69257,9.28615 C16.09772,9.68094 16.09772,10.29776 15.70636,10.67824 L11.492004,14.775742 C11.184509,15.074753 10.685425,15.074753 10.377869,14.775742 L8.294189,12.749817 L8.294189,12.749817 Z" id="Fill-1" sketch:type="MSShapeGroup"></path>
        </g>
    </g>
</svg>